<svg width="16" height="16" viewBox="0 0 16 16" fill="none" xmlns="http://www.w3.org/2000/svg">
<g id="akar-icons:behance-fill" clip-path="url(#clip0_1_559)">
<g id="Group">
<g id="Group_2">
<path id="Vector" d="M14.6667 4.66683H10V3.3335H14.6667V4.66683ZM15.8173 11.3335C15.5227 12.1982 14.4647 13.3335 12.4167 13.3335C10.3673 13.3335 8.70733 12.1808 8.70733 9.55016C8.70733 6.9435 10.2573 5.6035 12.3513 5.6035C14.406 5.6035 15.6607 6.7915 15.9347 8.55416C15.9867 8.8915 16.0073 9.34616 15.998 9.98083H10.6467C10.7333 12.1215 12.9687 12.1888 13.7053 11.3335H15.8173ZM10.6933 8.66683H14.0033C13.9333 7.6355 13.246 7.1875 12.352 7.1875C11.3747 7.1875 10.834 7.6995 10.6933 8.66683ZM4.31067 13.3255H0V3.3475H4.63533C8.286 3.4015 8.35533 6.97683 6.44867 7.9515C8.756 8.7915 8.83333 13.3255 4.31067 13.3255ZM2 7.3335H4.38933C6.06133 7.3335 6.32667 5.3335 4.18133 5.3335H2V7.3335ZM4.26067 9.3335H2V11.3442H4.22733C6.264 11.3442 6.13933 9.3335 4.26067 9.3335Z" fill="#333333"/>
</g>
</g>
</g>
<defs>
<clipPath id="clip0_1_559">
<rect width="16" height="16" fill="white"/>
</clipPath>
</defs>
</svg>
